<svg xmlns="http://www.w3.org/2000/svg" xmlns:xlink="http://www.w3.org/1999/xlink" width="181" height="42" viewBox="0 0 181 42">
    <defs>
        <path id="a" d="M0 0h180v42H0z"/>
    </defs>
    <g fill="none" fill-rule="evenodd" transform="translate(.828)">
        <mask id="b" fill="#fff">
            <use xlink:href="#a"/>
        </mask>
        <path fill="#FFF" d="M0 33h6.562V0H0v33zM24.531 7.187c1.681-.2 3.394-.156 5.079 0 1.662.153 3.334.818 4.765 1.546 1.461.741 2.449 1.581 3.281 2.705a10.312 10.312 0 0 1 1.798 3.863c.19.813.382 1.64.39 2.473L40 33h-6.094V20.093c-.234-1.237-.51-2.467-.703-3.709-.119-.768-.371-1.658-1.171-2.241-.704-.513-1.502-.93-2.344-1.16-1.164-.318-2.387-.452-3.594-.464a19.004 19.004 0 0 0-3.906.387c-1.05.21-2.132.456-3.047 1.004l-2.188 1.314-1.016.619v17.156H9.922V7.573h6.015v2.242c.86-.438 1.655-1.032 2.578-1.314 1.963-.6 3.978-1.073 6.016-1.314zM154 19h20c-.183-.506-.251-1.078-.549-1.515a9.05 9.05 0 0 0-1.803-1.938c-.797-.64-1.66-1.214-2.589-1.599a12.51 12.51 0 0 0-3.294-.842 16.047 16.047 0 0 0-3.687 0 12.115 12.115 0 0 0-3.137.758c-.922.365-1.815.865-2.589 1.515-.685.576-1.371 1.251-1.725 2.106L154 19zM136 8l-18.693 34h-6.692l4.847-8.713L102 8h6.923l10.153 19.217L129.308 8H136zm3 25h6V0h-6v33zm18.44-24.153c2.138-.523 4.35-.872 6.553-.846 2.186.026 4.349.509 6.476 1 1.994.46 3.535 1.51 4.914 2.691a12.77 12.77 0 0 1 3.512 4.77c.925 2.157 1.716 4.307 2.105 6.768h-26.914c.39.923.832 1.85 1.404 2.462a12.39 12.39 0 0 0 2.34 1.921c.877.564 1.947.871 2.887 1.002 1.09.15 2.177.383 3.276.383 1.695 0 3.393-.155 5.072-.383a19.16 19.16 0 0 0 3.354-.77c.871-.287 1.696-.708 2.497-1.154l1.795-1 3.12 4.077a44.398 44.398 0 0 1-2.965 1.769c-1.136.622-2.24 1.15-3.432 1.46-1.361.356-2.736.699-4.135.847-1.76.186-3.536.133-5.306.155-2.495.03-4.66-.447-6.942-1.155-1.932-.6-3.604-1.368-5.072-2.693-1.263-1.136-2.353-2.455-2.965-3.998-.636-1.611-1.014-3.463-1.014-5.077.079-1.922.484-3.762 1.25-5.384.794-1.685 1.805-3.073 3.12-4.153 1.498-1.23 3.201-2.235 5.07-2.692zm-112.642.9c.164 1.608.7 3.073 1.797 4.292 1.251 1.391 2.676 2.249 4.298 2.837 1.974.715 3.903 1.344 5.861 1.532 1.742.169 3.49.262 5.235.384 1.902.133 3.819.12 5.705.383 1.433.199 2.828.61 4.22.997 1.189.33 1.965 1.141 2.579 2.069.401.606.49 1.36.235 2.147-.293.903-.743 1.733-1.408 2.223-.9.662-1.766 1.254-2.969 1.533-1.332.31-2.695.55-4.063.612a41.46 41.46 0 0 1-5.86-.152c-2.051-.196-4.088-.55-6.096-.997-1.567-.347-3.225-.58-4.611-1.38l-3.595-2.069L43 29.14c1.512.716 2.985 1.515 4.533 2.147 1.581.646 3.18 1.29 4.845 1.685 1.79.428 3.635.61 5.47.768 2.078.177 4.169.325 6.251.23a51.305 51.305 0 0 0 7.112-.843c1.992-.377 3.694-1.267 5.392-2.223 1.43-.807 2.467-2.057 3.36-3.45.832-1.297 1.12-2.678 1.017-4.216-.13-1.913-.886-3.504-2.189-4.983-1.197-1.358-2.52-2.531-4.454-3.143a42.34 42.34 0 0 0-6.252-1.456c-2.013-.312-4.065-.287-6.096-.46-.964-.082-1.928-.196-2.89-.306-1.252-.145-2.515-.226-3.751-.46-1.191-.227-2.15-.64-2.97-1.304-.668-.54-1.802-.916-1.875-1.763-.07-.795.942-1.324 1.562-1.84.75-.622 1.584-1.184 2.501-1.533 1.195-.454 2.484-.647 3.75-.842a24.067 24.067 0 0 1 3.673-.308c1.697 0 3.401.07 5.08.308 1.407.197 2.785.583 4.142.996 1.252.38 2.52.768 3.673 1.379l2.891 1.533 3.126-4.292c-1.173-.614-2.307-1.302-3.516-1.84-1.322-.588-2.667-1.147-4.065-1.533a34.935 34.935 0 0 0-5.078-.997c-2.073-.252-4.165-.443-6.253-.383-2.304.067-4.596.424-6.876.766-1.969.297-3.96.824-5.626 1.764-1.466.826-2.79 1.88-3.673 3.22-.838 1.268-1.165 2.528-1.016 3.985zM82 7.566h4.246V1h6.178v6.567h8.031v5.022h-8.03c0 4.893-.64 9.829 0 14.68.103.787 1.153.793 1.852.927.769.148 1.534.357 2.317.385.597.025 1.188-.129 1.776-.231.443-.077.87-.234 1.313-.308l.463-.078.31-.31h.23L102 32.832l-.773.155c-.618.13-1.232.271-1.853.387-.77.142-1.54.287-2.316.385-.847.108-1.698.286-2.549.232-1.174-.075-2.333-.337-3.475-.617-.948-.236-1.846-.71-2.47-1.469-.59-.716-1.425-1.398-1.545-2.317l-.464-3.555-.309-13.443H82V7.567z" mask="url(#b)"/>
    </g>
</svg>
