<svg xmlns="http://www.w3.org/2000/svg" xmlns:xlink="http://www.w3.org/1999/xlink" width="37" height="37" viewBox="0 0 37 37">
    <defs>
        <path id="a" d="M0 0h16v13H0z"/>
    </defs>
    <g fill="none" fill-rule="evenodd" transform="translate(1 1)">
        <circle cx="17.5" cy="17.5" r="17.5" stroke="#BB1218"/>
        <g transform="translate(10 11)">
            <mask id="b" fill="#fff">
                <use xlink:href="#a"/>
            </mask>
            <path fill="#BB1218" d="M16 1.542a6.916 6.916 0 0 1-1.883.52 3.278 3.278 0 0 0 1.45-1.824 6.622 6.622 0 0 1-2.092.802A3.25 3.25 0 0 0 11.072 0a3.286 3.286 0 0 0-3.28 3.278c0 .265.043.512.095.75A9.269 9.269 0 0 1 1.12.599a3.349 3.349 0 0 0-.45 1.649c0 1.145.589 2.15 1.456 2.732a3.139 3.139 0 0 1-1.483-.406v.044c0 .423.078.811.225 1.181A3.286 3.286 0 0 0 3.28 7.826c-.287.08-.564.124-.868.124a2.88 2.88 0 0 1-.616-.07 3.317 3.317 0 0 0 3.063 2.29 6.572 6.572 0 0 1-4.07 1.402c-.269 0-.52-.018-.789-.044A9.366 9.366 0 0 0 5.033 13c5.128 0 8.295-3.605 9.119-7.35.148-.67.217-1.331.217-1.984v-.423A6.846 6.846 0 0 0 16 1.543" mask="url(#b)"/>
        </g>
    </g>
</svg>
