<?xml version="1.0" encoding="utf-8"?>
<!-- Generator: Adobe Illustrator 16.0.0, SVG Export Plug-In . SVG Version: 6.00 Build 0)  -->
<!DOCTYPE svg PUBLIC "-//W3C//DTD SVG 1.1 Tiny//EN" "http://www.w3.org/Graphics/SVG/1.1/DTD/svg11-tiny.dtd">
<svg version="1.1" baseProfile="tiny" id="Capa_1" xmlns="http://www.w3.org/2000/svg" xmlns:xlink="http://www.w3.org/1999/xlink"
	 x="0px" y="0px" width="541.047px" height="147.436px" viewBox="0 0 541.047 147.436" xml:space="preserve">
<g>
	<polygon fill="#FFFFFF" points="117.074,0.862 117.074,146.833 184.788,146.833 188.09,116.87 146.028,116.87 146.028,0.862 	"/>
	<polygon fill="#FFFFFF" points="117.074,0.862 117.074,146.833 184.788,146.833 188.09,116.87 146.028,116.87 146.028,0.862 	"/>
	<path fill="#FFFFFF" d="M110.271,20.608C99.617,5.35,81.86,0,67.832,0C28.589,0,0,28.734,0,73.719s28.589,73.717,67.832,73.717
		c17.224,0,34.982-7.727,45.458-24.373L90.206,103.84c-5.683,9.511-14.739,15.061-25.926,15.061
		c-20.065,0-35.514-19.023-35.514-45.182s15.448-45.183,36.402-45.183c10.299,0,18.29,4.162,23.794,11.495L110.271,20.608
		L110.271,20.608z"/>
	<path fill="#FFFFFF" d="M110.271,20.608C99.617,5.35,81.86,0,67.832,0C28.589,0,0,28.734,0,73.719s28.589,73.717,67.832,73.717
		c17.224,0,34.982-7.727,45.458-24.373L90.206,103.84c-5.683,9.511-14.739,15.061-25.926,15.061
		c-20.065,0-35.514-19.023-35.514-45.182s15.448-45.183,36.402-45.183c10.299,0,18.29,4.162,23.794,11.495L110.271,20.608
		L110.271,20.608z"/>
	<path fill="#FFFFFF" d="M315.026,0.648v146.186h28.956V87.975c17.117,0.213,24.948,1.496,31.504,26.111l8.741,32.746h32.6
		l-12.021-40.666c-6.373-20.976-15.297-25.898-24.947-28.68v-0.431c7.646-2.139,14.204-4.281,21.486-11.128
		c6.738-6.421,12.566-15.625,12.566-28.681c0-8.775-3.096-16.909-8.377-22.901c-7.832-8.99-20.761-13.699-42.797-13.699
		L315.026,0.648L315.026,0.648z M343.982,29.542h19.667c9.289,0,20.032,1.498,20.032,13.698c0,10.273-8.195,16.479-19.485,16.479
		h-20.214V29.542L343.982,29.542z"/>
	<path fill="#FFFFFF" d="M315.026,0.648v146.186h28.956V87.975c17.117,0.213,24.948,1.496,31.504,26.111l8.741,32.746h32.6
		l-12.021-40.666c-6.373-20.976-15.297-25.898-24.947-28.68v-0.431c7.646-2.139,14.204-4.281,21.486-11.128
		c6.738-6.421,12.566-15.625,12.566-28.681c0-8.775-3.096-16.909-8.377-22.901c-7.832-8.99-20.761-13.699-42.797-13.699
		L315.026,0.648L315.026,0.648z M343.982,29.542h19.667c9.289,0,20.032,1.498,20.032,13.698c0,10.273-8.195,16.479-19.485,16.479
		h-20.214V29.542L343.982,29.542z"/>
	<path fill="#FFFFFF" d="M466.383,0.862l-45.346,145.971h31.869l8.012-29.75h39.699l7.65,29.75h32.779L496.065,0.862H466.383
		L466.383,0.862z M493.698,89.471h-25.676l12.748-49.227h0.363L493.698,89.471L493.698,89.471z"/>
	<path fill="#FFFFFF" d="M466.383,0.862l-45.346,145.971h31.869l8.012-29.75h39.699l7.65,29.75h32.779L496.065,0.862H466.383
		L466.383,0.862z M493.698,89.471h-25.676l12.748-49.227h0.363L493.698,89.471L493.698,89.471z"/>
	<path fill="#FFFFFF" d="M236.583,0.862l-45.344,145.971h31.869l8.013-29.75h39.699l7.647,29.75h32.779L266.267,0.862H236.583
		L236.583,0.862z M263.9,89.471h-25.677l12.748-49.227h0.364L263.9,89.471L263.9,89.471z"/>
	<path fill="#FFFFFF" d="M236.583,0.862l-45.344,145.971h31.869l8.013-29.75h39.699l7.647,29.75h32.779L266.267,0.862H236.583
		L236.583,0.862z M263.9,89.471h-25.677l12.748-49.227h0.364L263.9,89.471L263.9,89.471z"/>
</g>
</svg>
